<svg xmlns="http://www.w3.org/2000/svg" xmlns:xlink="http://www.w3.org/1999/xlink" width="160" zoomAndPan="magnify" viewBox="0 0 120 119.999999" height="160" preserveAspectRatio="xMidYMid meet" version="1.0"><defs><g/><clipPath id="aa4dacc3b5"><path d="M 8.742188 8.742188 L 110.742188 8.742188 L 110.742188 110.742188 L 8.742188 110.742188 Z M 8.742188 8.742188 " clip-rule="nonzero"/></clipPath></defs><path fill="#ffffff" d="M 59.886719 119.777344 C 26.800781 119.777344 0 92.789062 0 59.890625 C 0 26.988281 26.800781 0 59.886719 0 C 92.976562 0 119.777344 26.800781 119.777344 59.890625 C 119.777344 92.976562 92.789062 119.777344 59.886719 119.777344 Z M 59.886719 3.695312 C 28.835938 3.695312 3.695312 28.835938 3.695312 59.890625 C 3.695312 90.941406 28.835938 116.082031 59.886719 116.082031 C 90.941406 116.082031 116.082031 90.941406 116.082031 59.890625 C 116.082031 28.835938 90.757812 3.695312 59.886719 3.695312 Z M 59.886719 3.695312 " fill-opacity="1" fill-rule="nonzero"/><g clip-path="url(#aa4dacc3b5)"><path fill="#ffffff" d="M 110.742188 59.742188 C 110.742188 61.414062 110.664062 63.082031 110.5 64.742188 C 110.335938 66.40625 110.089844 68.054688 109.765625 69.695312 C 109.4375 71.332031 109.03125 72.949219 108.546875 74.546875 C 108.0625 76.148438 107.5 77.71875 106.863281 79.261719 C 106.222656 80.804688 105.507812 82.3125 104.722656 83.785156 C 103.933594 85.257812 103.078125 86.6875 102.148438 88.078125 C 101.222656 89.46875 100.226562 90.808594 99.167969 92.097656 C 98.109375 93.390625 96.988281 94.625 95.804688 95.804688 C 94.625 96.988281 93.390625 98.109375 92.097656 99.167969 C 90.808594 100.226562 89.46875 101.222656 88.078125 102.148438 C 86.6875 103.078125 85.257812 103.933594 83.785156 104.722656 C 82.3125 105.507812 80.804688 106.222656 79.261719 106.863281 C 77.71875 107.5 76.148438 108.0625 74.546875 108.546875 C 72.949219 109.03125 71.332031 109.4375 69.695312 109.765625 C 68.054688 110.089844 66.40625 110.335938 64.742188 110.5 C 63.082031 110.664062 61.414062 110.742188 59.742188 110.742188 C 58.074219 110.742188 56.40625 110.664062 54.746094 110.5 C 53.082031 110.335938 51.433594 110.089844 49.792969 109.765625 C 48.15625 109.4375 46.539062 109.03125 44.941406 108.546875 C 43.339844 108.0625 41.769531 107.5 40.226562 106.863281 C 38.683594 106.222656 37.175781 105.507812 35.703125 104.722656 C 34.230469 103.933594 32.796875 103.078125 31.410156 102.148438 C 30.019531 101.222656 28.679688 100.226562 27.390625 99.167969 C 26.097656 98.109375 24.863281 96.988281 23.679688 95.804688 C 22.5 94.625 21.378906 93.390625 20.320312 92.097656 C 19.261719 90.808594 18.265625 89.46875 17.339844 88.078125 C 16.410156 86.6875 15.554688 85.257812 14.765625 83.785156 C 13.980469 82.3125 13.265625 80.804688 12.625 79.261719 C 11.988281 77.71875 11.425781 76.148438 10.941406 74.546875 C 10.457031 72.949219 10.050781 71.332031 9.722656 69.695312 C 9.398438 68.054688 9.152344 66.40625 8.988281 64.742188 C 8.824219 63.082031 8.742188 61.414062 8.742188 59.742188 C 8.742188 58.074219 8.824219 56.40625 8.988281 54.746094 C 9.152344 53.082031 9.398438 51.433594 9.722656 49.792969 C 10.050781 48.15625 10.457031 46.539062 10.941406 44.941406 C 11.425781 43.339844 11.988281 41.769531 12.625 40.226562 C 13.265625 38.683594 13.980469 37.175781 14.765625 35.703125 C 15.554688 34.230469 16.410156 32.796875 17.339844 31.410156 C 18.265625 30.019531 19.261719 28.679688 20.320312 27.390625 C 21.378906 26.097656 22.5 24.863281 23.679688 23.679688 C 24.863281 22.5 26.097656 21.378906 27.390625 20.320312 C 28.679688 19.261719 30.019531 18.265625 31.410156 17.339844 C 32.796875 16.410156 34.230469 15.554688 35.703125 14.765625 C 37.175781 13.980469 38.683594 13.265625 40.226562 12.625 C 41.769531 11.988281 43.339844 11.425781 44.941406 10.941406 C 46.539062 10.457031 48.15625 10.050781 49.792969 9.722656 C 51.433594 9.398438 53.082031 9.152344 54.746094 8.988281 C 56.40625 8.824219 58.074219 8.742188 59.742188 8.742188 C 61.414062 8.742188 63.082031 8.824219 64.742188 8.988281 C 66.40625 9.152344 68.054688 9.398438 69.695312 9.722656 C 71.332031 10.050781 72.949219 10.457031 74.546875 10.941406 C 76.148438 11.425781 77.71875 11.988281 79.261719 12.625 C 80.804688 13.265625 82.3125 13.980469 83.785156 14.765625 C 85.257812 15.554688 86.6875 16.410156 88.078125 17.339844 C 89.46875 18.265625 90.808594 19.261719 92.097656 20.320312 C 93.390625 21.378906 94.625 22.5 95.804688 23.679688 C 96.988281 24.863281 98.109375 26.097656 99.167969 27.390625 C 100.226562 28.679688 101.222656 30.019531 102.148438 31.410156 C 103.078125 32.796875 103.933594 34.230469 104.722656 35.703125 C 105.507812 37.175781 106.222656 38.683594 106.863281 40.226562 C 107.5 41.769531 108.0625 43.339844 108.546875 44.941406 C 109.03125 46.539062 109.4375 48.15625 109.765625 49.792969 C 110.089844 51.433594 110.335938 53.082031 110.5 54.746094 C 110.664062 56.40625 110.742188 58.074219 110.742188 59.742188 Z M 110.742188 59.742188 " fill-opacity="1" fill-rule="nonzero"/></g><g fill="#1e2952" fill-opacity="1"><g transform="translate(40.454475, 77.858254)"><g><path d="M 3.566406 -39.097656 L 7.703125 -39.097656 C 8.796875 -39.097656 9.257812 -38.636719 9.257812 -37.542969 L 9.257812 -3.390625 C 9.257812 -2.355469 8.796875 -1.839844 7.703125 -1.839844 L 3.910156 -1.839844 L 3.910156 0 L 21.160156 0 L 21.160156 -1.839844 L 16.097656 -1.839844 C 15.007812 -1.839844 14.546875 -2.355469 14.546875 -3.390625 L 14.546875 -19.777344 L 19.605469 -19.777344 C 24.03125 -19.777344 24.320312 -15.179688 24.320312 -11.785156 L 25.816406 -11.785156 L 25.816406 -29.78125 L 24.320312 -29.78125 C 24.320312 -26.449219 24.03125 -21.847656 19.605469 -21.847656 L 14.546875 -21.847656 L 14.546875 -37.542969 C 14.546875 -38.636719 15.007812 -39.097656 16.097656 -39.097656 L 25.355469 -39.097656 C 27.65625 -39.097656 30.300781 -38.464844 32.082031 -35.761719 C 34.382812 -32.253906 34.441406 -27.941406 34.441406 -27.941406 L 35.878906 -27.941406 L 35.648438 -40.9375 L 3.566406 -40.9375 Z M 3.566406 -39.097656 "/></g></g></g></svg>